<?xml version="1.0" encoding="UTF-8" standalone="no"?>
<!-- Created with Inkscape (http://www.inkscape.org/) -->

<svg
   width="135.44089mm"
   height="135.46667mm"
   viewBox="0 0 135.44089 135.46667"
   version="1.1"
   id="svg5"
   xml:space="preserve"
   xmlns:inkscape="http://www.inkscape.org/namespaces/inkscape"
   xmlns:sodipodi="http://sodipodi.sourceforge.net/DTD/sodipodi-0.dtd"
   xmlns="http://www.w3.org/2000/svg"
   xmlns:svg="http://www.w3.org/2000/svg"><sodipodi:namedview
     id="namedview7"
     pagecolor="#ffffff"
     bordercolor="#000000"
     borderopacity="0.25"
     inkscape:showpageshadow="2"
     inkscape:pageopacity="0.0"
     inkscape:pagecheckerboard="0"
     inkscape:deskcolor="#d1d1d1"
     inkscape:document-units="mm"
     showgrid="false" /><defs
     id="defs2" /><g
     inkscape:label="Layer 1"
     inkscape:groupmode="layer"
     id="layer1"
     transform="translate(-22.445347,-62.253958)"><g
       id="g77"
       transform="matrix(0.26458333,0,0,0.26458333,36.361635,41.557206)"><g
         id="g10049"
         transform="translate(-53.596988,77.22394)"><path
           fill="#000000"
           opacity="1"
           stroke="none"
           d="m 1197.9536,226.80667 c 29.3041,0 58.6082,0 88,0 0,116.68755 0,233.37512 -0.3882,350.70245 -2.0248,-5.24063 -3.5045,-11.17013 -5.3278,-16.99203 -5.2595,-16.79349 -13.3209,-32.06207 -24.6223,-45.65543 -11.5654,-13.91073 -24.934,-25.48962 -40.8872,-34.16223 -21.4502,-11.66086 -44.4761,-16.59592 -68.7147,-17.42409 -0.012,-45.12031 0.019,-89.77795 0.5111,-134.44712 8.7856,-0.0676 17.1096,-0.12359 25.8979,-0.11118 15.2618,0.0754 30.0593,0.0894 44.8568,0.0863 6.9032,-10e-4 9.7077,-2.52022 9.6327,-9.36146 -0.2145,-19.54592 -0.025,-39.12446 -1.1553,-58.62284 -0.849,-14.64485 -12.6846,-28.48242 -27.9019,-32.49557 -0.064,-0.74724 0.017,-1.13202 0.099,-1.5168 z"
           id="path9962" /><path
           fill="#000000"
           opacity="1"
           stroke="none"
           d="m 1215.5647,257.20372 c 0.1833,0.64796 0.038,1.73807 -0.4078,1.87983 -14.8752,4.72586 -21.1308,19.79427 -21.1296,31.8028 0.01,106.28087 0.01,212.56175 0.01,318.84264 -10e-5,1.16607 0,2.33218 -0.506,3.98361 -17.7558,0.48734 -35.0133,0.43182 -52.2698,0.53671 -3.7431,0.0227 -7.4827,0.62113 -11.2239,0.95441 0,-119.21568 0,-238.43136 0,-358 28.3532,0 56.7079,0 85.5313,0 z"
           id="path9966" /><g
           id="g10663"><path
             fill="#ffe07d"
             opacity="1"
             stroke="none"
             d="M 87,1.000001 C 185.35423,1 283.70847,1 382.24841,1.242136 c -22.00314,3.965451 -34.67044,22.571625 -34.4433,42.972792 0.58039,52.124496 0.20612,104.259762 0.18244,156.390722 -0.005,12.06671 -7.38996,20.63857 -18.95435,22.02616 4.03659,-7.5239 1.06375,-12.8481 -7.05462,-13.23633 -0.83109,-0.0397 -1.6655,-0.0135 -2.49835,-0.0135 -64.96432,-4.5e-4 -129.92863,-0.003 -194.89293,0.015 -1.82251,5.2e-4 -3.69065,0.0178 -5.45811,0.39717 -3.91676,0.84074 -6.08617,3.46415 -6.078,7.43255 0.009,4.24112 2.49247,6.77861 6.55914,7.59861 1.60624,0.32386 3.31882,0.15219 4.98298,0.15232 62.2991,0.006 124.59822,0.002 186.89732,0.0123 3.82748,6.6e-4 7.65497,0.10973 11.20981,0.38318 -5.3338,2.31345 -10.48795,4.21449 -15.43982,6.54541 -19.81979,9.32951 -36.80801,22.52553 -51.31369,38.82524 -4.22141,4.74347 -7.34271,10.46598 -11.43384,15.76841 -39.93066,0.0437 -79.39577,0.0574 -118.86085,0.0781 -1.83057,9.8e-4 -3.67543,-0.0686 -5.4888,0.12613 -4.28653,0.46033 -7.14836,3.55423 -7.1455,7.53821 0.003,3.98736 2.89313,7.19165 7.09057,7.67236 1.64508,0.18842 3.32657,0.0695 4.9915,0.0721 36.29795,0.0572 72.5959,0.11185 108.83476,0.51389 -1.87529,4.4418 -3.85413,8.47342 -5.47792,12.64325 -5.3718,13.79452 -9.96756,27.79724 -10.70845,42.85858 -0.22103,0.0699 -0.64896,0.24817 -1.12087,0.19489 -6.95976,-0.0867 -13.44758,-0.14377 -19.93544,-0.14994 -43.92279,-0.0417 -87.84559,-0.0726 -131.733998,-0.57162 0.03691,-1.63065 0.04164,-2.79676 0.04165,-3.96283 3.12e-4,-106.28089 0.0046,-212.56177 -0.0058,-318.842645 C 64.992722,22.674097 71.248344,7.605692 86.123512,2.879827 86.569717,2.738068 86.714622,1.647958 87,1.000001 m 141.5,69.943061 c 30.48169,-1.15e-4 60.96335,0.01053 91.44501,-0.02519 1.97323,-0.0023 4.04895,-0.03735 5.89712,-0.623948 3.58426,-1.137611 5.92133,-4.069412 4.9513,-7.581535 -0.71973,-2.605801 -3.22449,-4.983726 -5.47296,-6.793842 -1.1807,-0.950524 -3.51889,-0.604038 -5.33451,-0.604714 -65.29404,-0.0243 -130.58809,-0.02579 -195.88211,0.0053 -1.97602,9.39e-4 -4.46976,-0.290317 -5.80984,0.740567 -2.1634,1.664234 -4.92221,4.310367 -4.93126,6.551868 -0.0101,2.510433 2.35038,5.492252 4.4708,7.379879 1.31579,1.171326 4.10201,0.914909 6.22874,0.917831 34.47918,0.04743 68.95846,0.03368 104.43771,0.03378 m -86.9998,61.438122 c -6.99489,0.0221 -13.99799,-0.15392 -20.98175,0.13623 -4.61323,0.19163 -7.57616,3.5825 -7.51951,7.73871 0.0569,4.17137 3.0955,7.24006 7.66909,7.67212 1.1566,0.10927 2.32999,0.0524 3.49567,0.0525 65.29121,0.002 130.58244,0.004 195.87365,-0.01 1.65851,-3.3e-4 3.38822,0.10428 4.96122,-0.30957 3.78732,-0.99641 6.04116,-3.51959 5.9862,-7.55699 -0.0546,-4.00706 -2.21948,-6.58284 -6.13666,-7.36918 -1.93304,-0.38805 -3.9711,-0.34093 -5.9617,-0.34146 -58.79541,-0.0157 -117.59083,-0.0126 -177.38621,-0.0127 z"
             id="path9960" /><path
             fill="#dd646e"
             opacity="1"
             stroke="none"
             d="m 353.46612,513 c -1.01931,-0.66058 -1.49041,-1.80179 -2.1376,-1.91232 -23.5964,-4.0304 -44.42413,-13.86319 -62.91196,-29.06922 -16.76867,-13.79202 -29.37603,-30.61703 -38.52511,-50.83432 -0.21559,-0.89416 -0.40259,-1.13434 -0.72502,-1.69214 -0.80194,-2.73935 -1.48267,-5.12042 -2.31488,-7.44735 -7.44098,-20.8057 -9.52573,-42.18625 -6.89557,-64.48429 2.85275,-20.15612 9.84474,-38.38263 20.2997,-55.65869 3.78247,-5.26642 7.2948,-10.32425 11.06927,-15.55173 8.44482,-7.43756 16.13394,-15.37533 24.90826,-21.8403 21.27994,-15.6792 45.362,-24.12367 72.17591,-25.14651 4.41662,0.77136 8.5838,1.02292 12.61096,1.91008 37.78308,8.32358 67.89499,28.03139 88.70734,60.93614 23.31036,36.85416 27.39505,76.34305 14.36438,117.60916 -7.0553,22.34305 -20.07077,41.03699 -37.27262,56.9494 -15.42999,14.27341 -33.17279,24.36857 -53.27096,30.22464 -8.38745,2.44382 -17.0246,4.03086 -25.54822,6.00745 -4.68924,0 -9.37851,0 -14.53388,0 m 9.1511,-238.42435 c -54.61695,6.46674 -95.31485,58.35505 -88.38303,112.685 6.21735,48.72995 42.32871,84.31915 92.6529,90.6203 7.79638,-0.2662 15.66409,0.0507 23.37753,-0.89331 49.67709,-6.07965 94.14084,-51.91409 87.29251,-112.23544 -4.86298,-42.83341 -29.35236,-71.85492 -70.10043,-86.27277 -14.14655,-5.00543 -28.98115,-7.07272 -44.83948,-3.90378 z"
             id="path9968" /><path
             fill="#eab14d"
             opacity="1"
             stroke="none"
             d="m 249.21738,429.87537 c 0.27148,0.17443 0.45848,0.41461 0.62315,0.94281 -64.06534,0.20877 -128.19289,0.15936 -192.320381,0.20004 C 32.744614,431.03394 8.409231,412.9191 2.878762,388.81128 2.751857,388.25803 2.052901,387.83606 1.310386,387.67642 1,378.64578 1,369.29153 0.999999,359.46863 c 3.741236,-0.80191 7.480861,-1.4003 11.223985,-1.42304 17.256523,-0.10489 34.514019,-0.0494 52.235443,-0.0721 44.387073,0.0137 88.309873,0.0446 132.232663,0.0863 6.48786,0.006 12.97568,0.0632 19.90955,0.59012 0.42711,8.76163 0.38067,17.02985 0.39534,25.29794 0.0256,14.44089 3.24122,28.30982 7.44095,42.02518 0.95416,3.11609 2.64807,4.18851 5.79619,4.08447 6.32286,-0.20889 12.65496,-0.13766 18.98326,-0.18206 z"
             id="path9970" /><path
             fill="#ffd064"
             opacity="1"
             stroke="none"
             d="m 368.09473,239.13815 c -26.49952,1.24782 -50.58158,9.69229 -71.86152,25.37149 -8.77432,6.46497 -16.46344,14.40274 -25.38128,21.86621 -9.1145,0.16623 -17.49388,0.13688 -25.87326,0.10755 3.62555,-5.27374 6.74685,-10.99625 10.96826,-15.73972 14.50568,-16.29971 31.4939,-29.49573 51.31369,-38.82524 4.95187,-2.33092 10.10602,-4.23196 15.78998,-6.62773 2.35809,-0.97095 4.09347,-1.64473 5.82883,-2.31851 11.71816,-1.72798 19.10266,-10.29984 19.10812,-22.36655 0.0237,-52.13096 0.39795,-104.266226 -0.18244,-156.390722 C 347.57797,23.813761 360.24527,5.207587 382.71704,1.242136 390.35425,1 397.7085,1 405.26471,1.248107 c -22.4711,6.550272 -33.24792,20.692534 -33.25107,44.154218 -0.002,17.315094 -0.0342,34.630352 0.0476,51.945064 0.009,1.896836 0.68265,3.790531 1.048,5.685681 -0.0305,44.65765 -0.0611,89.31529 -0.34118,134.66809 -1.72409,0.94242 -3.1987,1.18971 -4.67334,1.43699 z"
             id="path9972" /><path
             fill="#da4b55"
             opacity="1"
             stroke="none"
             d="m 368.40912,239.36313 c 1.16025,-0.47226 2.63486,-0.71955 4.40115,-1.19931 24.48816,0.13302 47.51407,5.06808 68.96418,16.72894 15.95324,8.67261 29.3218,20.2515 40.8872,34.16223 11.30145,13.59336 19.3628,28.86194 24.62232,45.65543 1.82333,5.8219 3.30298,11.7514 5.32785,17.46066 0.38818,15.18314 0.38818,30.53739 -0.003,46.17252 -0.77279,0.78647 -1.42636,1.2572 -1.49618,1.8027 -1.69321,13.22421 -6.17105,25.59906 -12.07193,37.40445 -8.51312,17.03143 -20.01877,31.74423 -34.86463,43.8869 -18.54046,15.16455 -39.31405,25.30618 -62.90679,29.642 -0.84552,0.15537 -1.51679,1.25873 -2.26923,1.92035 -10.02091,0 -20.04178,0 -30.53134,0 8.05496,-1.97659 16.69211,-3.56363 25.07956,-6.00745 20.09817,-5.85607 37.84097,-15.95123 53.27096,-30.22464 17.20185,-15.91241 30.21732,-34.60635 37.27262,-56.9494 13.03067,-41.26611 8.94598,-80.755 -14.36438,-117.60916 -20.81235,-32.90475 -50.92426,-52.61256 -88.70734,-60.93614 -4.02716,-0.88716 -8.19434,-1.13872 -12.61096,-1.91008 z"
             id="path9974" /><path
             fill="#e49642"
             opacity="1"
             stroke="none"
             d="m 373.57092,103.02155 c -0.82702,-1.88363 -1.5007,-3.777325 -1.50967,-5.674161 -0.0818,-17.314712 -0.0499,-34.62997 -0.0476,-51.945064 0.003,-23.461684 10.77997,-37.603946 33.7197,-44.154218 C 412.02115,1 418.0423,1 424.53174,1 c 0.38684,0.384782 0.30542,0.769564 0.15368,1.789244 -1.36813,1.371722 -2.65689,2.124963 -3.96505,2.84284 -13.9466,7.653287 -21.73777,19.087438 -21.73093,35.325413 0.009,20.628139 0.0103,41.256279 0.0149,61.884423 -8.32394,0.056 -16.64788,0.11207 -25.43347,0.17963 z"
             id="path9978" /><path
             fill="#325267"
             opacity="1"
             stroke="none"
             d="m 228,70.943062 c -34.97925,-9.2e-5 -69.45853,0.01366 -103.93771,-0.03378 -2.12673,-0.0029 -4.91295,0.253495 -6.22874,-0.917831 -2.12042,-1.887627 -4.48093,-4.869446 -4.4708,-7.379879 0.009,-2.241501 2.76786,-4.887634 4.93126,-6.551868 1.34008,-1.030884 3.83382,-0.739628 5.80984,-0.740567 65.29402,-0.0311 130.58807,-0.02961 195.88211,-0.0053 1.81562,6.76e-4 4.15381,-0.34581 5.33451,0.604714 2.24847,1.810116 4.75323,4.188041 5.47296,6.793842 0.97003,3.512123 -1.36704,6.443924 -4.9513,7.581535 -1.84817,0.586602 -3.92389,0.621636 -5.89712,0.623948 -30.48166,0.03572 -60.96332,0.02508 -91.94501,0.02519 z"
             id="path9980" /><path
             fill="#325267"
             opacity="1"
             stroke="none"
             d="m 142.00018,132.38132 c 59.2954,1e-5 118.09082,-0.003 176.88623,0.0126 1.9906,5.3e-4 4.02866,-0.0466 5.9617,0.34146 3.91718,0.78634 6.08203,3.36212 6.13666,7.36918 0.055,4.0374 -2.19888,6.56058 -5.9862,7.55699 -1.573,0.41385 -3.30271,0.30924 -4.96122,0.30957 -65.29121,0.0132 -130.58244,0.0114 -195.87365,0.01 -1.16568,-3e-5 -2.33907,0.0568 -3.49567,-0.0525 -4.57359,-0.43206 -7.61222,-3.50075 -7.66909,-7.67212 -0.0567,-4.15621 2.90628,-7.54708 7.51951,-7.73871 6.98376,-0.29015 13.98686,-0.11417 21.48173,-0.13609 z"
             id="path9982" /><path
             fill="#325267"
             opacity="1"
             stroke="none"
             d="m 329.0332,222.63181 c -1.88913,1.01417 -3.62451,1.68795 -5.70999,2.44407 -4.17761,0.0237 -8.0051,-0.0854 -11.83258,-0.086 -62.2991,-0.0107 -124.59822,-0.007 -186.89732,-0.0123 -1.66416,-1.3e-4 -3.37674,0.17154 -4.98298,-0.15232 -4.06667,-0.82 -6.5504,-3.35749 -6.55914,-7.59861 -0.008,-3.9684 2.16124,-6.59181 6.078,-7.43255 1.76746,-0.37938 3.6356,-0.39665 5.45811,-0.39717 64.9643,-0.0184 129.92861,-0.0154 194.89293,-0.015 0.83285,0 1.66726,-0.0262 2.49835,0.0135 8.11837,0.38823 11.09121,5.71243 7.05462,13.23633 z"
             id="path9984" /><path
             fill="#2b4d66"
             opacity="1"
             stroke="none"
             d="m 244.51309,286.51209 c 8.84496,6.4e-4 17.22434,0.03 26.07672,0.0334 -3.03933,5.03192 -6.55166,10.08975 -10.80191,15.31101 -9.08993,0.21209 -17.442,0.2608 -25.79405,0.30951 -36.29794,-0.0551 -72.59589,-0.10975 -108.89384,-0.16697 -1.66493,-0.003 -3.34642,0.11628 -4.9915,-0.0721 -4.19744,-0.48071 -7.08771,-3.685 -7.09057,-7.67236 -0.003,-3.98398 2.85897,-7.07788 7.1455,-7.53821 1.81337,-0.1947 3.65823,-0.12515 5.4888,-0.12613 39.46508,-0.0207 78.93019,-0.0344 118.86085,-0.0781 z"
             id="path9986" /><path
             fill="#e49542"
             opacity="1"
             stroke="none"
             d="m 249.16643,429.492 c -6.27735,0.42777 -12.60945,0.35654 -18.93231,0.56543 -3.14812,0.10404 -4.84203,-0.96838 -5.79619,-4.08447 -4.19973,-13.71536 -7.41535,-27.58429 -7.44095,-42.02518 -0.0147,-8.26809 0.0318,-16.53631 0.0766,-25.24466 0.0259,-0.44018 0.45382,-0.61846 1.14592,-0.65954 7.69032,-0.0521 14.68855,-0.0632 21.68678,-0.0742 -2.58043,21.88904 -0.49568,43.26959 6.9453,64.07529 0.83221,2.32693 1.51294,4.708 2.31488,7.44735 z"
             id="path9988" /><path
             fill="#ffd064"
             opacity="1"
             stroke="none"
             d="m 239.95598,357.56036 c -7.04796,0.42005 -14.04619,0.43109 -21.51549,0.41333 0.0488,-15.02026 4.64456,-29.02298 10.01636,-42.8175 1.62379,-4.16983 3.60263,-8.20145 5.47792,-12.64328 8.41113,-0.3956 16.7632,-0.44431 25.58302,-0.44785 -9.71707,17.11267 -16.70906,35.33918 -19.56181,55.4953 z"
             id="path9990" /><path
             fill="#eab14d"
             opacity="1"
             stroke="none"
             d="m 399.46875,102.91037 c -0.46903,-20.696594 -0.47064,-41.324734 -0.47931,-61.952873 -0.007,-16.237975 7.78433,-27.672126 21.73093,-35.325413 1.30816,-0.717877 2.59692,-1.471118 4.11038,-2.480382 15.2876,3.378252 27.12326,17.215817 27.97226,31.860665 1.1304,19.498387 0.94079,39.076927 1.15524,58.622826 0.075,6.841237 -2.72949,9.360027 -9.63269,9.361457 -14.79748,0.003 -29.59497,-0.0109 -44.85681,-0.0863 z"
             id="path9992" /><path
             fill="#f4faff"
             opacity="1"
             stroke="none"
             d="m 365.96533,477.66547 c -49.40243,-6.08567 -85.51379,-41.67487 -91.73114,-90.40482 -6.93182,-54.32995 33.76608,-106.21826 89.23233,-112.5275 12.87717,2.22095 24.4054,5.87967 34.93607,12.06019 12.51977,7.34789 23.67926,16.3385 31.17041,28.84695 -3.53519,1.87945 -7.1883,3.22275 -9.66248,5.72961 -2.92242,2.96106 -2.27704,6.85471 0.69437,9.7984 2.98691,2.95908 6.69214,3.22883 9.90564,0.63755 2.24243,-1.8082 3.77734,-4.49387 5.90652,-6.60111 8.45853,13.16687 12.01096,27.59509 13.15442,42.71655 -7.06766,0.33317 -10.37332,2.78095 -10.57059,7.59208 -0.19671,4.79882 3.10972,7.60015 9.56998,8.12356 0.48603,0.0394 0.96518,0.16342 1.43866,0.676 -1.44198,13.11731 -4.34949,25.39279 -10.55917,36.67331 -0.87873,1.59631 -2.49488,2.78668 -4.00534,3.93622 -1.67862,-1.79844 -2.9599,-3.56733 -4.59796,-4.89658 -3.44623,-2.79648 -7.11518,-2.65515 -10.23569,0.43988 -3.11719,3.09177 -3.28348,6.7511 -0.55737,10.2482 2.49234,3.19714 5.41366,5.82879 9.78146,5.71286 -2.58997,3.43268 -4.78363,6.80365 -7.51175,9.66507 -14.63898,15.35431 -32.48523,25.08917 -53.10556,29.87878 -1.15323,0.26792 -2.17163,1.11649 -3.25281,1.6948 m 2.71887,-99.34955 c 1.40039,3.8179 4.37262,5.23926 8.1836,5.26233 6.31427,0.0382 12.63101,0.11499 18.94278,-0.0147 5.50525,-0.11313 9.07086,-3.42569 8.92355,-7.96344 -0.14761,-4.54728 -3.71261,-7.47492 -9.33862,-7.56766 -3.76886,-0.0621 -7.53958,-0.0118 -11.65045,-0.0118 0,-2.54495 10e-4,-4.50992 -2.5e-4,-6.47492 -0.007,-8.6408 0.12424,-17.28485 -0.0745,-25.92123 -0.11734,-5.09595 -3.69135,-8.52698 -8.04328,-8.33377 -4.23135,0.18783 -7.45965,3.52692 -7.47421,8.39871 -0.0418,13.9512 0.12796,27.90299 0.53143,42.62656 m -65.99902,5.28604 c 8.06806,1.15936 12.46069,-6.42328 8.9567,-11.89685 -2.15451,-3.36548 -7.38929,-4.86505 -12.12546,-3.29129 -3.71057,1.23294 -5.82449,3.84787 -5.52939,7.85199 0.35165,4.77087 3.38946,6.90179 8.69815,7.33615 m 75.89987,73.71695 c 4.99784,-3.14722 6.74942,-9.00415 4.22421,-14.12503 -2.36764,-4.80142 -9.04415,-5.83368 -12.52551,-1.76779 -3.00934,3.51467 -2.92575,7.73285 -1.32495,11.72641 1.54456,3.8533 4.77066,5.30053 9.62625,4.16641 M 368.10623,301.84094 c 0.0931,1.64728 -0.0704,3.35932 0.32584,4.93009 1.35507,5.37164 7.36169,7.74127 11.74328,4.61435 4.16419,-2.97175 4.09144,-7.33307 3.11496,-11.67655 -0.87011,-3.87027 -3.56674,-5.89529 -7.56454,-5.79086 -4.5477,0.11877 -6.78549,2.88016 -7.61954,7.92297 m -52.34826,126.65192 c 1.24902,6.30618 6.02648,9.43313 10.86315,6.70972 3.77448,-2.12537 7.67945,-5.10978 6.63697,-9.98841 -0.54383,-2.54492 -3.15641,-5.57123 -5.58573,-6.59143 -4.60266,-1.93292 -7.63852,1.77896 -10.2687,5.01169 -0.87467,1.07504 -1.09073,2.68594 -1.64569,4.85843 m 10.09487,-112.47492 c -6.91562,-0.67254 -11.37612,2.95368 -9.77841,8.62656 0.7778,2.76169 3.17911,5.41177 5.5026,7.30655 3.02282,2.465 6.66479,2.07977 9.54699,-0.65787 2.88068,-2.7362 3.37879,-6.24869 1.15848,-9.51199 -1.45267,-2.13513 -3.74969,-3.69574 -6.42966,-5.76325 z"
             id="path9994" /><path
             fill="#daf0f3"
             opacity="1"
             stroke="none"
             d="m 429.97678,315.61902 c -7.89493,-12.48718 -19.05442,-21.47779 -31.57419,-28.82568 -10.53067,-6.18052 -22.0589,-9.83924 -34.53986,-11.94867 14.61282,-3.43796 29.44742,-1.37067 43.59397,3.63476 40.74807,14.41785 65.23745,43.43936 70.10043,86.27277 6.84833,60.32135 -37.61542,106.15579 -87.29251,112.23544 -7.71344,0.94403 -15.58115,0.62711 -23.83841,0.78555 0.6203,-0.68603 1.6387,-1.5346 2.79193,-1.80252 20.62033,-4.78961 38.46658,-14.52447 53.10556,-29.87878 2.72812,-2.86142 4.92178,-6.23239 7.83481,-9.81363 5.42261,-2.46176 6.67828,-6.22437 5.52215,-11.12711 1.27481,-1.37823 2.89096,-2.5686 3.76969,-4.16491 6.20968,-11.28052 9.11719,-23.556 10.88485,-36.81406 4.70923,-1.40643 7.63584,-3.82251 7.55091,-8.46585 -0.0899,-4.91379 -3.39447,-7.11762 -7.90595,-7.85245 -1.55215,-15.05405 -5.10458,-29.48227 -13.60025,-43.0502 10e-4,-5.1145 -2.28402,-7.79883 -6.40313,-9.18466 z"
             id="path9996" /><path
             fill="#32536b"
             opacity="1"
             stroke="none"
             d="m 368.52576,377.92993 c -0.24503,-14.33758 -0.41477,-28.28937 -0.37299,-42.24057 0.0146,-4.87179 3.24286,-8.21088 7.47421,-8.39871 4.35193,-0.19321 7.92594,3.23782 8.04328,8.33377 0.19879,8.63638 0.0677,17.28043 0.0745,25.92123 0.002,1.965 2.5e-4,3.92997 2.5e-4,6.47492 4.11087,0 7.88159,-0.0503 11.65045,0.0118 5.62601,0.0927 9.19101,3.02038 9.33862,7.56766 0.14731,4.53775 -3.4183,7.85031 -8.92355,7.96344 -6.31177,0.12973 -12.62851,0.053 -18.94278,0.0147 -3.81098,-0.0231 -6.78321,-1.44443 -8.34204,-5.64832 z"
             id="path9998" /><path
             fill="#3d6482"
             opacity="1"
             stroke="none"
             d="m 378.22534,457.46985 c -4.49588,0.98318 -7.72198,-0.46405 -9.26654,-4.31735 -1.6008,-3.99356 -1.68439,-8.21174 1.32495,-11.72641 3.48136,-4.06589 10.15787,-3.03363 12.52551,1.76779 2.52521,5.12088 0.77363,10.97781 -4.58392,14.27597 z"
             id="path10002" /><path
             fill="#3d6482"
             opacity="1"
             stroke="none"
             d="m 449.57147,367.92129 c 4.92017,0.66742 8.22476,2.87125 8.31464,7.78504 0.0849,4.64334 -2.84168,7.05942 -7.54199,8.03799 -0.80808,0.056 -1.28723,-0.068 -1.77326,-0.10739 -6.46026,-0.52341 -9.76669,-3.32474 -9.56998,-8.12356 0.19727,-4.81113 3.50293,-7.25891 10.57059,-7.59208 z"
             id="path10004" /><path
             fill="#3d6482"
             opacity="1"
             stroke="none"
             d="m 368.12891,301.4296 c 0.81137,-4.63147 3.04916,-7.39286 7.59686,-7.51163 3.9978,-0.10443 6.69443,1.92059 7.56454,5.79086 0.97648,4.34348 1.04923,8.7048 -3.11496,11.67655 -4.38159,3.12692 -10.38821,0.75729 -11.74328,-4.61435 -0.39627,-1.57077 -0.23279,-3.28281 -0.30316,-5.34143 z"
             id="path10006" /><path
             fill="#3b6281"
             opacity="1"
             stroke="none"
             d="m 435.44498,424.92246 c 1.39181,5.13143 0.13614,8.89404 -5.13681,11.05889 -4.84052,0.5614 -7.76184,-2.07025 -10.25418,-5.26739 -2.72611,-3.4971 -2.55982,-7.15643 0.55737,-10.2482 3.12051,-3.09503 6.78946,-3.23636 10.23569,-0.43988 1.63806,1.32925 2.91934,3.09814 4.59793,4.89658 z"
             id="path10008" /><path
             fill="#3b6280"
             opacity="1"
             stroke="none"
             d="m 429.573,315.64029 c 4.52289,1.36456 6.80829,4.04889 6.52865,8.9769 -1.81378,2.69479 -3.34869,5.38046 -5.59112,7.18866 -3.2135,2.59128 -6.91873,2.32153 -9.90564,-0.63755 -2.97141,-2.94369 -3.61679,-6.83734 -0.69437,-9.7984 2.47418,-2.50686 6.12729,-3.85016 9.66248,-5.72961 z"
             id="path10010" /><path
             fill="#3b6280"
             opacity="1"
             stroke="none"
             d="m 315.77685,428.08957 c 0.53608,-1.7692 0.75214,-3.3801 1.62681,-4.45514 2.63018,-3.23273 5.66604,-6.94461 10.2687,-5.01169 2.42932,1.0202 5.0419,4.04651 5.58573,6.59143 1.04248,4.87863 -2.86249,7.86304 -6.63697,9.98841 -4.83667,2.72341 -9.61413,-0.40354 -10.84427,-7.11301 z"
             id="path10012" /><path
             fill="#3a6180"
             opacity="1"
             stroke="none"
             d="m 326.2334,316.1427 c 2.29941,1.94275 4.59643,3.50336 6.0491,5.63849 2.22031,3.2633 1.7222,6.77579 -1.15848,9.51199 -2.8822,2.73764 -6.52417,3.12287 -9.54699,0.65787 -2.32349,-1.89478 -4.7248,-4.54486 -5.5026,-7.30655 -1.59771,-5.67288 2.86279,-9.2991 10.15897,-8.5018 z"
             id="path10014" /></g></g></g></g></svg>
