<?xml version="1.0" encoding="UTF-8" standalone="no"?>
<!-- Created with Inkscape (http://www.inkscape.org/) -->

<svg
   width="39.476776mm"
   height="40.500267mm"
   viewBox="0 0 39.476776 40.500267"
   version="1.1"
   id="svg5"
   xml:space="preserve"
   xmlns="http://www.w3.org/2000/svg"
   xmlns:svg="http://www.w3.org/2000/svg"><defs
     id="defs2" /><g
     id="layer1"
     transform="translate(-79.194399,-80.845205)"><g
       id="g12114"
       transform="matrix(0.26458333,0,0,0.26458333,46.147173,53.865168)"><g
         style="opacity:1;fill:none;fill-rule:nonzero;stroke:none;stroke-width:0;stroke-linecap:butt;stroke-linejoin:miter;stroke-miterlimit:10;stroke-dasharray:none"
         transform="matrix(2.81,0,0,2.81,166.12492,102.61953)"
         id="g12162"><g
   id="g12399"
   transform="translate(-189.30548,-1.5453509)"><path
     d="m 208.73811,49.007816 c 0,3.73 -3.051,6.781 -6.781,6.781 v 0 c -3.73,0 -6.781,-3.051 -6.781,-6.781"
     style="opacity:1;fill:#ffffff;fill-rule:nonzero;stroke:none;stroke-width:1;stroke-linecap:butt;stroke-linejoin:miter;stroke-miterlimit:10;stroke-dasharray:none"
     stroke-linecap="round"
     id="path12158" /><path
     d="m 227.14443,46.166842 c -0.521,-0.345 -1.171,-0.693 -1.985,-1.045 -5.164,-2.352 -4.87,-15.543 -5.681,-23.584 -1.239,-8.201 -5.178,-13.348 -11.816,-15.442 -0.859,-2.761 -3.443,-4.781 -6.478,-4.781 -3.035,0 -5.619,2.02 -6.478,4.781 -6.638,2.094 -10.577,7.241 -11.816,15.442 -0.81,8.041 -0.517,21.232 -5.681,23.584 -0.814,0.353 -1.464,0.701 -1.985,1.045 -1.082,0.716 -0.574,2.398 0.723,2.398 h 25.212 0.049 25.212 c 1.298,0 1.806,-1.682 0.724,-2.398 z"
     style="opacity:1;fill:#ffffff;fill-rule:nonzero;stroke:none;stroke-width:1;stroke-linecap:butt;stroke-linejoin:miter;stroke-miterlimit:10;stroke-dasharray:none"
     stroke-linecap="round"
     id="path12160" /></g>
	
	
	
	
	
</g></g></g></svg>
