<?xml version="1.0" encoding="UTF-8" standalone="no"?>
<!-- Created with Inkscape (http://www.inkscape.org/) -->

<svg
   width="210mm"
   height="297mm"
   viewBox="0 0 210 297"
   version="1.1"
   id="svg5"
   xml:space="preserve"
   inkscape:export-filename="absent.svg"
   inkscape:export-xdpi="96"
   inkscape:export-ydpi="96"
   xmlns:inkscape="http://www.inkscape.org/namespaces/inkscape"
   xmlns:sodipodi="http://sodipodi.sourceforge.net/DTD/sodipodi-0.dtd"
   xmlns="http://www.w3.org/2000/svg"
   xmlns:svg="http://www.w3.org/2000/svg"><sodipodi:namedview
     id="namedview7"
     pagecolor="#ffffff"
     bordercolor="#000000"
     borderopacity="0.25"
     inkscape:showpageshadow="2"
     inkscape:pageopacity="0.0"
     inkscape:pagecheckerboard="0"
     inkscape:deskcolor="#d1d1d1"
     inkscape:document-units="mm"
     showgrid="false" /><defs
     id="defs2" /><g
     inkscape:label="Layer 1"
     inkscape:groupmode="layer"
     id="layer1"><g
       id="g12114"
       transform="matrix(0.26458333,0,0,0.26458333,46.147173,53.865168)"><path
         fill="#26a1f4"
         opacity="1"
         stroke="none"
         d="M 225,1.000001 C 246.02089,1 267.04178,1 288.19626,1.341537 c 1.14291,0.778953 2.11477,1.442751 3.16769,1.617209 7.07108,1.171644 14.26715,1.782295 21.22269,3.422996 24.72891,5.833194 48.40576,14.416716 70.55817,27.125914 16.17538,9.280083 31.62127,19.641277 45.03179,32.488499 11.89478,11.395164 23.15897,23.612633 33.47754,36.450895 15.86585,19.74017 27.60779,42.06021 36.2406,65.85425 6.43165,17.72719 11.46497,35.8866 13.19199,54.80222 0.0625,0.68467 1.25006,1.26664 1.91327,1.89648 0,21.02089 0,42.04178 -0.33612,63.19013 -0.77506,0.96761 -1.45895,1.76498 -1.61459,2.65475 -1.40171,8.01462 -2.34809,16.12619 -4.11274,24.05697 -6.11047,27.46183 -16.6875,53.20243 -31.51407,77.06556 -14.22024,22.88726 -31.84347,42.92801 -52.31832,60.52209 -14.16263,12.17001 -29.41898,22.75446 -45.8866,31.35376 -27.095,14.14893 -55.69791,23.97836 -86.31076,27.24088 -0.69577,0.0742 -1.27383,1.25253 -1.9068,1.91586 -21.02091,0 -42.04179,0 -63.19618,-0.34094 -0.80974,-0.76654 -1.43941,-1.44492 -2.16925,-1.57926 -9.43113,-1.73629 -18.95449,-3.04702 -28.30303,-5.14163 -24.07559,-5.39423 -46.68388,-14.79913 -67.87573,-27.23733 C 102.37162,463.97815 80.483459,445.27954 61.518761,423.11874 49.487282,409.05963 38.9604,393.9689 30.399208,377.66815 16.103096,350.44791 6.221551,321.68921 2.915971,290.90771 2.84118,290.21127 1.663318,289.63327 0.999997,289 1,267.64578 1,246.29155 1.332968,224.80679 c 0.774102,-0.96898 1.438678,-1.76133 1.622545,-2.65283 2.393647,-11.60597 4.202053,-23.36 7.170348,-34.81436 6.019315,-23.22795 15.781108,-44.99147 28.441747,-65.3178 C 52.816952,99.144867 70.43528,79.080757 90.923561,61.482025 104.95407,49.430294 120.06941,38.957432 136.35071,30.38349 163.55432,16.057714 192.33701,6.280885 223.09076,2.916287 223.78871,2.839928 224.36627,1.663366 225,1.000001 m 29.91429,187.414339 c -35.09202,35.35801 -70.32619,70.5773 -105.12204,106.22439 -5.18878,5.31571 -9.79068,12.1496 -12.12608,19.13025 -7.38382,22.07059 -13.787,44.48105 -20.10709,66.89044 -2.87666,10.19989 5.5426,18.19846 15.90241,15.8248 1.29632,-0.29703 2.57521,-0.67489 3.8533,-1.04587 17.57007,-5.09985 35.0594,-10.50201 52.73286,-15.21368 13.75409,-3.66675 25.2455,-10.45908 35.27358,-20.58679 38.91922,-39.30597 78.11221,-78.34085 117.19769,-117.48224 1.15118,-1.15283 2.24002,-2.36792 2.98624,-3.15959 -23.62064,-23.61156 -47.02918,-47.01113 -70.62943,-70.60231 -6.30173,6.32071 -12.88174,12.92051 -19.96144,20.0206 m 93.22234,-70.34092 c -12.80008,-2.95288 -23.63379,0.56741 -32.79413,9.83442 -7.61218,7.7008 -15.32028,15.3067 -22.96216,22.9783 -0.99798,1.00191 -1.85449,2.14476 -2.25491,2.61272 23.7005,23.67317 46.99707,46.94287 70.62033,70.53887 8.4385,-8.43226 17.337,-17.14935 26.03827,-26.05906 13.75763,-14.08713 13.68808,-33.76108 -0.0928,-47.78795 -7.23822,-7.36742 -14.27667,-14.98036 -22.01742,-21.78632 -4.63465,-4.07492 -10.45139,-6.8054 -16.53717,-10.33098 z"
         id="path12088" /><path
         fill="#ffffff"
         opacity="1"
         stroke="none"
         d="m 255.16414,188.16418 c 6.82985,-6.84993 13.40986,-13.44973 19.71159,-19.77044 23.60025,23.59118 47.00879,46.99075 70.62943,70.60231 -0.74622,0.79167 -1.83506,2.00676 -2.98624,3.15959 -39.08548,39.14139 -78.27847,78.17627 -117.19769,117.48224 -10.02808,10.12771 -21.51949,16.92004 -35.27358,20.58679 -17.67346,4.71167 -35.16279,10.11383 -52.73286,15.21368 -1.27809,0.37098 -2.55698,0.74884 -3.8533,1.04587 -10.35981,2.37366 -18.77907,-5.62491 -15.90241,-15.8248 6.32009,-22.40939 12.72327,-44.81985 20.10709,-66.89044 2.3354,-6.98065 6.9373,-13.81454 12.12608,-19.13025 34.79585,-35.64709 70.03002,-70.86638 105.37189,-106.47455 z"
         id="path12098" /><path
         fill="#feffff"
         opacity="1"
         stroke="none"
         d="m 348.5368,118.16882 c 5.68561,3.43018 11.50235,6.16066 16.137,10.23558 7.74075,6.80596 14.7792,14.4189 22.01742,21.78632 13.78089,14.02687 13.85044,33.70082 0.0928,47.78795 -8.70127,8.90971 -17.59977,17.6268 -26.03827,26.05906 -23.62326,-23.596 -46.91983,-46.8657 -70.62033,-70.53887 0.40042,-0.46796 1.25693,-1.61081 2.25491,-2.61272 7.64188,-7.6716 15.34998,-15.2775 22.96216,-22.9783 9.16034,-9.26701 19.99405,-12.7873 33.1943,-9.73902 z"
         id="path12100" /></g></g></svg>
